STARTFONT 2.1
FONT -*-CG pixel 3x5-Medium-R-Normal--5-40-96-96-c-3--fontspecific
SIZE 4 96 96
FONTBOUNDINGBOX 5 6 0 -1
COMMENT "Generated by fontforge, http://fontforge.sourceforge.net"
COMMENT ""
COMMENT "This file has been produced by ttf2bdf written by Subhabrata Biswas"
COMMENT ""
COMMENT "For comments, questions, bug reports, send a mail to"
COMMENT "subhabrata.biswas@usa.net"
COMMENT ""
STARTPROPERTIES 15
FOUNDRY "Misc"
FAMILY_NAME "CG pixel 3x5"
WEIGHT_NAME "Medium"
SLANT "R"
SETWIDTH_NAME "Normal"
PIXEL_SIZE 5
POINT_SIZE 40
RESOLUTION_X 96
RESOLUTION_Y 96
SPACING "C"
CHARSET_ENCODING "fontspecific"
FONT_ASCENT 5
FONT_DESCENT 0
DEFAULT_CHAR 31
COPYRIGHT "You may wish to put your copyright here"
ENDPROPERTIES
CHARS 98
STARTCHAR C0030
ENCODING 30
SWIDTH 0 0
DWIDTH 0 0
BBX 5 5 0 0
BITMAP
F8
F8
F8
F8
F8
ENDCHAR
STARTCHAR C0031
ENCODING 31
SWIDTH 0 0
DWIDTH 0 0
BBX 5 5 0 0
BITMAP
F8
F8
F8
F8
F8
ENDCHAR
STARTCHAR C0032-
ENCODING 32
SWIDTH 200 0
DWIDTH 1 0
BBX 1 1 0 -1
BITMAP
00
ENDCHAR
STARTCHAR C0033-!
ENCODING 33
SWIDTH 375 0
DWIDTH 2 0
BBX 1 5 0 0
BITMAP
80
80
80
00
80
ENDCHAR
STARTCHAR C0034-"
ENCODING 34
SWIDTH 750 0
DWIDTH 4 0
BBX 3 2 0 3
BITMAP
A0
A0
ENDCHAR
STARTCHAR C0035-#
ENCODING 35
SWIDTH 750 0
DWIDTH 4 0
BBX 3 5 0 0
BITMAP
A0
E0
A0
E0
A0
ENDCHAR
STARTCHAR C0036-$
ENCODING 36
SWIDTH 750 0
DWIDTH 4 0
BBX 3 5 0 0
BITMAP
60
C0
40
60
C0
ENDCHAR
STARTCHAR C0037-
ENCODING 37
SWIDTH 750 0
DWIDTH 4 0
BBX 3 5 0 0
BITMAP
80
20
40
80
20
ENDCHAR
STARTCHAR C0038-&
ENCODING 38
SWIDTH 750 0
DWIDTH 4 0
BBX 3 5 0 0
BITMAP
60
80
60
A0
60
ENDCHAR
STARTCHAR C0039-'
ENCODING 39
SWIDTH 375 0
DWIDTH 2 0
BBX 1 2 0 3
BITMAP
80
80
ENDCHAR
STARTCHAR C0040-
ENCODING 40
SWIDTH 562 0
DWIDTH 3 0
BBX 2 5 0 0
BITMAP
40
80
80
80
40
ENDCHAR
STARTCHAR C0041-
ENCODING 41
SWIDTH 562 0
DWIDTH 3 0
BBX 2 5 0 0
BITMAP
80
40
40
40
80
ENDCHAR
STARTCHAR C0042-*
ENCODING 42
SWIDTH 750 0
DWIDTH 4 0
BBX 3 5 0 0
BITMAP
A0
40
E0
40
A0
ENDCHAR
STARTCHAR C0043-+
ENCODING 43
SWIDTH 750 0
DWIDTH 4 0
BBX 3 3 0 1
BITMAP
40
E0
40
ENDCHAR
STARTCHAR C0044-,
ENCODING 44
SWIDTH 562 0
DWIDTH 3 0
BBX 2 2 0 0
BITMAP
40
C0
ENDCHAR
STARTCHAR C0045--
ENCODING 45
SWIDTH 750 0
DWIDTH 4 0
BBX 3 1 0 2
BITMAP
E0
ENDCHAR
STARTCHAR C0046-.
ENCODING 46
SWIDTH 375 0
DWIDTH 2 0
BBX 1 1 0 0
BITMAP
80
ENDCHAR
STARTCHAR C0047-
ENCODING 47
SWIDTH 750 0
DWIDTH 4 0
BBX 3 5 0 0
BITMAP
20
20
40
80
80
ENDCHAR
STARTCHAR C0048-0
ENCODING 48
SWIDTH 750 0
DWIDTH 4 0
BBX 3 5 0 0
BITMAP
E0
A0
A0
A0
E0
ENDCHAR
STARTCHAR C0049-1
ENCODING 49
SWIDTH 750 0
DWIDTH 4 0
BBX 2 5 0 0
BITMAP
40
C0
40
40
40
ENDCHAR
STARTCHAR C0050-2
ENCODING 50
SWIDTH 750 0
DWIDTH 4 0
BBX 3 5 0 0
BITMAP
E0
20
E0
80
E0
ENDCHAR
STARTCHAR C0051-3
ENCODING 51
SWIDTH 750 0
DWIDTH 4 0
BBX 3 5 0 0
BITMAP
E0
20
E0
20
E0
ENDCHAR
STARTCHAR C0052-4
ENCODING 52
SWIDTH 750 0
DWIDTH 4 0
BBX 3 5 0 0
BITMAP
A0
A0
E0
20
20
ENDCHAR
STARTCHAR C0053-5
ENCODING 53
SWIDTH 750 0
DWIDTH 4 0
BBX 3 5 0 0
BITMAP
E0
80
E0
20
E0
ENDCHAR
STARTCHAR C0054-6
ENCODING 54
SWIDTH 750 0
DWIDTH 4 0
BBX 3 5 0 0
BITMAP
E0
80
E0
A0
E0
ENDCHAR
STARTCHAR C0055-7
ENCODING 55
SWIDTH 750 0
DWIDTH 4 0
BBX 3 5 0 0
BITMAP
E0
20
40
40
40
ENDCHAR
STARTCHAR C0056-8
ENCODING 56
SWIDTH 750 0
DWIDTH 4 0
BBX 3 5 0 0
BITMAP
E0
A0
E0
A0
E0
ENDCHAR
STARTCHAR C0057-9
ENCODING 57
SWIDTH 750 0
DWIDTH 4 0
BBX 3 5 0 0
BITMAP
E0
A0
E0
20
E0
ENDCHAR
STARTCHAR C0058-:
ENCODING 58
SWIDTH 375 0
DWIDTH 2 0
BBX 1 3 0 1
BITMAP
80
00
80
ENDCHAR
STARTCHAR C0059-;
ENCODING 59
SWIDTH 562 0
DWIDTH 3 0
BBX 2 4 0 0
BITMAP
40
00
40
80
ENDCHAR
STARTCHAR C0060-
ENCODING 60
SWIDTH 750 0
DWIDTH 4 0
BBX 3 5 0 0
BITMAP
20
40
80
40
20
ENDCHAR
STARTCHAR C0061-=
ENCODING 61
SWIDTH 750 0
DWIDTH 4 0
BBX 3 3 0 1
BITMAP
E0
00
E0
ENDCHAR
STARTCHAR C0062-
ENCODING 62
SWIDTH 750 0
DWIDTH 4 0
BBX 3 5 0 0
BITMAP
80
40
20
40
80
ENDCHAR
STARTCHAR C0063-?
ENCODING 63
SWIDTH 750 0
DWIDTH 4 0
BBX 3 5 0 0
BITMAP
C0
20
40
00
40
ENDCHAR
STARTCHAR C0064-@
ENCODING 64
SWIDTH 750 0
DWIDTH 4 0
BBX 3 5 0 0
BITMAP
40
A0
E0
80
60
ENDCHAR
STARTCHAR C0065-A
ENCODING 65
SWIDTH 750 0
DWIDTH 4 0
BBX 3 5 0 0
BITMAP
E0
A0
E0
A0
A0
ENDCHAR
STARTCHAR C0066-B
ENCODING 66
SWIDTH 750 0
DWIDTH 4 0
BBX 3 5 0 0
BITMAP
C0
A0
C0
A0
C0
ENDCHAR
STARTCHAR C0067-C
ENCODING 67
SWIDTH 750 0
DWIDTH 4 0
BBX 3 5 0 0
BITMAP
E0
80
80
80
E0
ENDCHAR
STARTCHAR C0068-D
ENCODING 68
SWIDTH 750 0
DWIDTH 4 0
BBX 3 5 0 0
BITMAP
C0
A0
A0
A0
C0
ENDCHAR
STARTCHAR C0069-E
ENCODING 69
SWIDTH 750 0
DWIDTH 4 0
BBX 3 5 0 0
BITMAP
E0
80
E0
80
E0
ENDCHAR
STARTCHAR C0070-F
ENCODING 70
SWIDTH 750 0
DWIDTH 4 0
BBX 3 5 0 0
BITMAP
E0
80
E0
80
80
ENDCHAR
STARTCHAR C0071-G
ENCODING 71
SWIDTH 750 0
DWIDTH 4 0
BBX 3 5 0 0
BITMAP
60
80
80
A0
60
ENDCHAR
STARTCHAR C0072-H
ENCODING 72
SWIDTH 750 0
DWIDTH 4 0
BBX 3 5 0 0
BITMAP
A0
A0
E0
A0
A0
ENDCHAR
STARTCHAR C0073-I
ENCODING 73
SWIDTH 375 0
DWIDTH 2 0
BBX 1 5 0 0
BITMAP
80
80
80
80
80
ENDCHAR
STARTCHAR C0074-J
ENCODING 74
SWIDTH 750 0
DWIDTH 4 0
BBX 3 5 0 0
BITMAP
20
20
20
A0
E0
ENDCHAR
STARTCHAR C0075-K
ENCODING 75
SWIDTH 750 0
DWIDTH 4 0
BBX 3 5 0 0
BITMAP
A0
A0
C0
A0
A0
ENDCHAR
STARTCHAR C0076-L
ENCODING 76
SWIDTH 750 0
DWIDTH 4 0
BBX 3 5 0 0
BITMAP
80
80
80
80
E0
ENDCHAR
STARTCHAR C0077-M
ENCODING 77
SWIDTH 750 0
DWIDTH 4 0
BBX 3 5 0 0
BITMAP
A0
E0
A0
A0
A0
ENDCHAR
STARTCHAR C0078-N
ENCODING 78
SWIDTH 750 0
DWIDTH 4 0
BBX 3 5 0 0
BITMAP
C0
A0
A0
A0
A0
ENDCHAR
STARTCHAR C0079-O
ENCODING 79
SWIDTH 750 0
DWIDTH 4 0
BBX 3 5 0 0
BITMAP
E0
A0
A0
A0
E0
ENDCHAR
STARTCHAR C0080-P
ENCODING 80
SWIDTH 750 0
DWIDTH 4 0
BBX 3 5 0 0
BITMAP
E0
A0
E0
80
80
ENDCHAR
STARTCHAR C0081-Q
ENCODING 81
SWIDTH 750 0
DWIDTH 4 0
BBX 3 5 0 0
BITMAP
40
A0
A0
E0
60
ENDCHAR
STARTCHAR C0082-R
ENCODING 82
SWIDTH 750 0
DWIDTH 4 0
BBX 3 5 0 0
BITMAP
C0
A0
C0
A0
A0
ENDCHAR
STARTCHAR C0083-S
ENCODING 83
SWIDTH 750 0
DWIDTH 4 0
BBX 3 5 0 0
BITMAP
E0
80
E0
20
E0
ENDCHAR
STARTCHAR C0084-T
ENCODING 84
SWIDTH 750 0
DWIDTH 4 0
BBX 3 5 0 0
BITMAP
E0
40
40
40
40
ENDCHAR
STARTCHAR C0085-U
ENCODING 85
SWIDTH 750 0
DWIDTH 4 0
BBX 3 5 0 0
BITMAP
A0
A0
A0
A0
E0
ENDCHAR
STARTCHAR C0086-V
ENCODING 86
SWIDTH 750 0
DWIDTH 4 0
BBX 3 5 0 0
BITMAP
A0
A0
A0
E0
40
ENDCHAR
STARTCHAR C0087-W
ENCODING 87
SWIDTH 750 0
DWIDTH 4 0
BBX 3 5 0 0
BITMAP
A0
A0
A0
E0
A0
ENDCHAR
STARTCHAR C0088-X
ENCODING 88
SWIDTH 750 0
DWIDTH 4 0
BBX 3 5 0 0
BITMAP
A0
A0
40
A0
A0
ENDCHAR
STARTCHAR C0089-Y
ENCODING 89
SWIDTH 750 0
DWIDTH 4 0
BBX 3 5 0 0
BITMAP
A0
A0
E0
40
40
ENDCHAR
STARTCHAR C0090-Z
ENCODING 90
SWIDTH 750 0
DWIDTH 4 0
BBX 3 5 0 0
BITMAP
E0
20
40
80
E0
ENDCHAR
STARTCHAR C0091-
ENCODING 91
SWIDTH 562 0
DWIDTH 3 0
BBX 2 5 0 0
BITMAP
C0
80
80
80
C0
ENDCHAR
STARTCHAR C0092-\
ENCODING 92
SWIDTH 750 0
DWIDTH 4 0
BBX 3 5 0 0
BITMAP
80
80
40
20
20
ENDCHAR
STARTCHAR C0093-
ENCODING 93
SWIDTH 562 0
DWIDTH 3 0
BBX 2 5 0 0
BITMAP
C0
40
40
40
C0
ENDCHAR
STARTCHAR C0094-^
ENCODING 94
SWIDTH 750 0
DWIDTH 4 0
BBX 3 2 0 3
BITMAP
40
A0
ENDCHAR
STARTCHAR C0095-_
ENCODING 95
SWIDTH 750 0
DWIDTH 4 0
BBX 3 1 0 0
BITMAP
E0
ENDCHAR
STARTCHAR C0096-`
ENCODING 96
SWIDTH 562 0
DWIDTH 3 0
BBX 2 2 0 3
BITMAP
80
40
ENDCHAR
STARTCHAR C0097-a
ENCODING 97
SWIDTH 750 0
DWIDTH 4 0
BBX 3 5 0 0
BITMAP
E0
A0
E0
A0
A0
ENDCHAR
STARTCHAR C0098-b
ENCODING 98
SWIDTH 750 0
DWIDTH 4 0
BBX 3 5 0 0
BITMAP
C0
A0
C0
A0
C0
ENDCHAR
STARTCHAR C0099-c
ENCODING 99
SWIDTH 750 0
DWIDTH 4 0
BBX 3 5 0 0
BITMAP
E0
80
80
80
E0
ENDCHAR
STARTCHAR C0100-d
ENCODING 100
SWIDTH 750 0
DWIDTH 4 0
BBX 3 5 0 0
BITMAP
C0
A0
A0
A0
C0
ENDCHAR
STARTCHAR C0101-e
ENCODING 101
SWIDTH 750 0
DWIDTH 4 0
BBX 3 5 0 0
BITMAP
E0
80
E0
80
E0
ENDCHAR
STARTCHAR C0102-f
ENCODING 102
SWIDTH 750 0
DWIDTH 4 0
BBX 3 5 0 0
BITMAP
E0
80
E0
80
80
ENDCHAR
STARTCHAR C0103-g
ENCODING 103
SWIDTH 750 0
DWIDTH 4 0
BBX 3 5 0 0
BITMAP
60
80
80
A0
60
ENDCHAR
STARTCHAR C0104-h
ENCODING 104
SWIDTH 750 0
DWIDTH 4 0
BBX 3 5 0 0
BITMAP
A0
A0
E0
A0
A0
ENDCHAR
STARTCHAR C0105-i
ENCODING 105
SWIDTH 375 0
DWIDTH 2 0
BBX 1 5 0 0
BITMAP
80
80
80
80
80
ENDCHAR
STARTCHAR C0106-j
ENCODING 106
SWIDTH 750 0
DWIDTH 4 0
BBX 3 5 0 0
BITMAP
20
20
A0
A0
E0
ENDCHAR
STARTCHAR C0107-k
ENCODING 107
SWIDTH 750 0
DWIDTH 4 0
BBX 3 5 0 0
BITMAP
A0
A0
C0
A0
A0
ENDCHAR
STARTCHAR C0108-l
ENCODING 108
SWIDTH 750 0
DWIDTH 4 0
BBX 3 5 0 0
BITMAP
80
80
80
80
E0
ENDCHAR
STARTCHAR C0109-m
ENCODING 109
SWIDTH 750 0
DWIDTH 4 0
BBX 3 5 0 0
BITMAP
A0
E0
A0
A0
A0
ENDCHAR
STARTCHAR C0110-n
ENCODING 110
SWIDTH 750 0
DWIDTH 4 0
BBX 3 5 0 0
BITMAP
C0
A0
A0
A0
A0
ENDCHAR
STARTCHAR C0111-o
ENCODING 111
SWIDTH 750 0
DWIDTH 4 0
BBX 3 5 0 0
BITMAP
E0
A0
A0
A0
E0
ENDCHAR
STARTCHAR C0112-p
ENCODING 112
SWIDTH 750 0
DWIDTH 4 0
BBX 3 5 0 0
BITMAP
E0
A0
E0
80
80
ENDCHAR
STARTCHAR C0113-q
ENCODING 113
SWIDTH 750 0
DWIDTH 4 0
BBX 3 5 0 0
BITMAP
40
A0
A0
E0
60
ENDCHAR
STARTCHAR C0114-r
ENCODING 114
SWIDTH 750 0
DWIDTH 4 0
BBX 3 5 0 0
BITMAP
C0
A0
C0
A0
A0
ENDCHAR
STARTCHAR C0115-s
ENCODING 115
SWIDTH 750 0
DWIDTH 4 0
BBX 3 5 0 0
BITMAP
E0
80
E0
20
E0
ENDCHAR
STARTCHAR C0116-t
ENCODING 116
SWIDTH 750 0
DWIDTH 4 0
BBX 3 5 0 0
BITMAP
E0
40
40
40
40
ENDCHAR
STARTCHAR C0117-u
ENCODING 117
SWIDTH 750 0
DWIDTH 4 0
BBX 3 5 0 0
BITMAP
A0
A0
A0
A0
E0
ENDCHAR
STARTCHAR C0118-v
ENCODING 118
SWIDTH 750 0
DWIDTH 4 0
BBX 3 5 0 0
BITMAP
A0
A0
A0
E0
40
ENDCHAR
STARTCHAR C0119-w
ENCODING 119
SWIDTH 750 0
DWIDTH 4 0
BBX 3 5 0 0
BITMAP
A0
A0
A0
E0
A0
ENDCHAR
STARTCHAR C0120-x
ENCODING 120
SWIDTH 750 0
DWIDTH 4 0
BBX 3 5 0 0
BITMAP
A0
A0
40
A0
A0
ENDCHAR
STARTCHAR C0121-y
ENCODING 121
SWIDTH 750 0
DWIDTH 4 0
BBX 3 5 0 0
BITMAP
A0
A0
E0
40
40
ENDCHAR
STARTCHAR C0122-z
ENCODING 122
SWIDTH 750 0
DWIDTH 4 0
BBX 3 5 0 0
BITMAP
E0
20
40
80
E0
ENDCHAR
STARTCHAR C0123-
ENCODING 123
SWIDTH 750 0
DWIDTH 4 0
BBX 3 5 0 0
BITMAP
60
40
C0
40
60
ENDCHAR
STARTCHAR C0124-|
ENCODING 124
SWIDTH 375 0
DWIDTH 2 0
BBX 1 5 0 0
BITMAP
80
80
00
80
80
ENDCHAR
STARTCHAR C0125-
ENCODING 125
SWIDTH 750 0
DWIDTH 4 0
BBX 3 5 0 0
BITMAP
C0
40
60
40
C0
ENDCHAR
STARTCHAR C0126-~
ENCODING 126
SWIDTH 750 0
DWIDTH 4 0
BBX 3 2 0 2
BITMAP
60
C0
ENDCHAR
STARTCHAR degree
ENCODING 176
SWIDTH 400 0
DWIDTH 2 0
BBX 2 2 0 3
BITMAP
C0
C0
ENDCHAR
ENDFONT
